<svg width="536" height="281" viewBox="0 0 536 281" fill="none" xmlns="http://www.w3.org/2000/svg">
<path fill-rule="evenodd" clip-rule="evenodd" d="M36.08 1.3299C36.188 2.3519 36.224 30.7519 36.161 64.4389C36.06 118.166 35.862 125.689 34.546 125.689C33.232 125.689 33.037 119.017 32.972 71.9389C32.931 42.3769 32.537 16.1639 32.097 13.6889C31.649 11.1679 31.241 35.2509 31.171 68.4389L31.046 127.689L34.796 127.69L38.546 127.691L38.245 104.19L37.943 80.6889H52.925C67.233 80.6889 67.921 80.7809 68.226 82.7289C68.645 85.3969 70.543 85.7739 70.545 83.1889C70.546 81.2719 71.304 81.1779 88.796 80.9159C98.833 80.7669 107.046 80.9119 107.046 81.2399C107.046 81.5669 101.579 92.0399 94.897 104.512C88.215 116.984 77.785 136.639 71.72 148.189C65.654 159.739 60.156 169.639 59.502 170.189C58.849 170.739 54.811 177.939 50.53 186.189C42.724 201.233 38.145 209.872 33.038 219.189C31.53 221.939 24.115 235.889 16.558 250.189C9.00199 264.489 2.185 277.201 1.41 278.439L0 280.689L182.273 280.705C478.935 280.732 535.395 280.674 535.729 280.34C535.903 280.166 533.422 275.11 530.216 269.106C527.01 263.102 521.998 253.689 519.077 248.189C516.156 242.689 510.747 232.564 507.058 225.689C503.369 218.814 497.511 207.789 494.039 201.189C490.567 194.589 485.549 185.25 482.887 180.437C480.224 175.623 478.046 171.501 478.046 171.276C478.046 171.052 476.32 167.79 474.209 164.029C472.099 160.267 466.859 150.439 462.564 142.189C449.761 117.596 438.804 97.2219 438.094 96.6889C437.016 95.8789 430.046 82.9639 430.046 81.7769C430.046 81.0469 434.488 80.6889 443.546 80.6889H457.046L457.164 83.9389C457.23 85.7259 457.197 87.6389 457.093 88.1889C456.989 88.7389 457.46 88.6419 458.141 87.9719C458.822 87.3029 459.379 85.3909 459.379 83.7219V80.6889H476.213H493.046V104.189V127.689H496.796L500.546 127.69L500.268 65.9609C500.096 27.7219 499.62 3.8629 499.018 3.2609C498.168 2.4109 497.301 21.0189 498.043 24.1889C498.172 24.7389 498.216 47.6889 498.141 75.1889C498.023 118.438 497.805 125.233 496.526 125.512C495.233 125.795 495.046 118.805 495.046 70.3209C495.046 39.7879 494.708 14.5989 494.296 14.3449C493.883 14.0899 493.406 17.9919 493.234 23.0139C493.062 28.0369 492.837 32.2209 492.734 32.3129C492.631 32.4039 483.771 32.6389 473.047 32.8339C458.655 33.0959 453.548 32.8829 453.547 32.0219C453.546 31.3809 453.209 30.5179 452.796 30.1059C452.384 29.6929 452.046 30.3469 452.046 31.5579V33.7589L428.029 33.5909L404.012 33.4219L398.451 23.0559L392.891 12.6889H268.085C150.101 12.6889 143.249 12.7849 142.722 14.4389C142.154 16.2219 136.074 27.3739 133.464 31.4189C132.038 33.6309 131.832 33.6479 109.286 33.4189C92.759 33.2519 86.546 32.8699 86.546 32.0219C86.546 31.3809 86.208 30.5179 85.796 30.1059C85.384 29.6929 85.046 30.3309 85.046 31.5219C85.046 33.9379 84.046 34.0919 75.244 33.0349C70.433 32.4569 69.969 32.1839 70.244 30.0899C70.41 28.8199 70.096 27.6479 69.546 27.4849C68.996 27.3219 68.414 28.5389 68.253 30.1889L67.96 33.1889L53.003 32.8889L38.046 32.5889V16.6979C38.046 6.3849 37.666 0.571898 36.965 0.138898C36.319 -0.260102 35.962 0.2199 36.08 1.3299ZM493.713 6.3559C492.737 7.3309 492.898 10.6889 493.921 10.6889C494.402 10.6889 494.796 9.5639 494.796 8.1889C494.796 5.4829 494.718 5.3509 493.713 6.3559ZM393.976 24.0619C396.214 28.1169 398.046 31.9069 398.046 32.4849C398.046 33.2119 358.1 33.5369 267.985 33.5449C196.451 33.5509 138.064 33.2249 138.235 32.8219C138.406 32.4189 140.346 28.6259 142.546 24.3929L146.546 16.6979L268.226 16.6929L389.906 16.6889L393.976 24.0619ZM68.046 57.1889V79.6889H53.046H38.046V57.1889V34.6889H53.046H68.046V57.1889ZM75.815 56.9389L75.546 79.1889H73.046H70.546L70.312 56.9389L70.077 34.6889H73.081H76.084L75.815 56.9389ZM85.046 38.8309C85.046 40.8059 84.612 41.7109 83.796 41.4389C82.323 40.9489 81.637 38.1979 82.454 36.0669C83.363 33.6989 85.046 35.4939 85.046 38.8309ZM95.266 38.6449C94.911 41.0619 94.327 41.6889 92.433 41.6889C90.46 41.6889 90.046 41.1809 90.046 38.7589C90.046 36.4959 90.559 35.7439 92.296 35.4569C95.489 34.9309 95.767 35.2289 95.266 38.6449ZM155.533 38.0319C155.405 39.2179 155.244 40.5269 155.174 40.9389C155.103 41.3509 153.972 41.6889 152.659 41.6889C150.771 41.6889 150.181 41.0609 149.832 38.6829C149.291 34.9969 149.351 34.9329 152.899 35.4539C155.133 35.7819 155.713 36.3489 155.533 38.0319ZM245.046 38.5019C245.046 41.6299 244.866 41.7979 241.84 41.5019C239.055 41.2299 238.649 40.8289 238.74 38.4389C238.799 36.9269 238.891 35.5759 238.946 35.4389C239.001 35.3019 240.396 35.1889 242.046 35.1889C244.776 35.1889 245.046 35.4879 245.046 38.5019ZM297.046 38.7479C297.046 41.3489 296.699 41.6889 294.046 41.6889C291.395 41.6889 291.046 41.3479 291.046 38.7589C291.046 36.4959 291.559 35.7439 293.296 35.4569C296.488 34.9309 297.046 35.4199 297.046 38.7479ZM327.239 38.8299C326.868 41.3569 326.413 41.7529 324.183 41.4939C322.603 41.3099 321.427 40.4709 321.22 39.3809C320.615 36.1929 321.701 34.9849 324.768 35.4349C327.354 35.8139 327.626 36.1889 327.239 38.8299ZM335.046 38.8059C335.046 41.3429 334.686 41.6889 332.046 41.6889C329.419 41.6889 329.046 41.3369 329.046 38.8559C329.046 35.2959 329.496 34.8609 332.57 35.4489C334.523 35.8219 335.046 36.5309 335.046 38.8059ZM417.881 38.8239C417.619 40.6749 416.84 41.2569 414.296 41.5019C411.283 41.7929 411.046 41.5979 411.046 38.8189C411.046 36.3009 411.485 35.7659 413.796 35.4719C417.29 35.0279 418.3 35.8569 417.881 38.8239ZM466.986 56.6159C466.89 74.5719 466.611 78.6419 465.446 79.0889C463.207 79.9479 458.046 78.5769 458.046 77.1229C458.046 74.9649 455.951 74.3379 455.426 76.3379C455.11 77.5399 453.906 78.2629 451.993 78.3989C449.347 78.5869 449.046 78.3059 449.046 75.6489C449.046 73.1399 449.436 72.6889 451.605 72.6889C453.056 72.6889 453.897 72.2559 453.546 71.6889C453.206 71.1389 450.48 70.6889 447.487 70.6889C442.108 70.6889 442.046 70.6549 442.046 67.6889C442.046 66.0389 442.5 64.6889 443.054 64.6889C443.676 64.6889 443.616 63.9729 442.897 62.8209C442.222 61.7419 442.059 60.1599 442.51 59.0709C442.939 58.0359 443.348 55.6139 443.418 53.6889C443.523 50.8089 443.929 50.1889 445.706 50.1889C446.893 50.1889 448.206 49.8509 448.622 49.4389C449.039 49.0269 447.924 48.6889 446.146 48.6889C443.209 48.6889 442.942 48.4369 443.23 45.9389C443.504 43.5499 444.04 43.1479 447.306 42.8779C450.46 42.6169 451.208 42.9389 451.951 44.8779C452.469 46.2279 452.465 47.5839 451.942 48.1389C450.72 49.4349 450.804 54.6889 452.046 54.6889C452.596 54.6889 453.046 53.7889 453.046 52.6889C453.046 51.5889 453.482 50.6889 454.015 50.6889C454.547 50.6889 454.717 51.4759 454.392 52.4389C454.024 53.5249 454.471 53.2869 455.569 51.8109C457.197 49.6229 457.208 49.3589 455.699 48.5149C454.182 47.6659 454.181 47.4119 455.694 45.1039C456.742 43.5049 458.083 42.7149 459.437 42.8999C461.159 43.1359 461.603 42.5929 461.859 39.9389C462.033 38.1339 461.705 36.6889 461.121 36.6889C460.543 36.6889 460.177 37.7009 460.308 38.9389C460.676 42.4209 456.822 41.9969 456.355 38.5039C455.98 35.7069 456.636 35.4239 464.825 34.8489L467.104 34.6889L466.986 56.6159ZM493.046 57.3389V79.9889L481.943 79.4029C475.837 79.0809 470.55 78.5269 470.193 78.1719C469.837 77.8169 469.401 67.8879 469.225 56.1079L468.904 34.6889H480.975H493.046V57.3389ZM81.046 38.6889C81.046 41.0219 80.602 41.6889 79.046 41.6889C77.49 41.6889 77.046 41.0219 77.046 38.6889C77.046 36.3559 77.49 35.6889 79.046 35.6889C80.602 35.6889 81.046 36.3559 81.046 38.6889ZM88.046 38.7479C88.046 40.5329 87.629 41.5499 87.046 41.1889C86.496 40.8489 86.046 39.4729 86.046 38.1299C86.046 36.7869 86.496 35.6889 87.046 35.6889C87.596 35.6889 88.046 37.0659 88.046 38.7479ZM103.046 38.6889C103.046 41.3559 102.713 41.6889 100.046 41.6889C97.379 41.6889 97.046 41.3559 97.046 38.6889C97.046 36.0219 97.379 35.6889 100.046 35.6889C102.713 35.6889 103.046 36.0219 103.046 38.6889ZM110.046 38.6889C110.046 41.3559 109.713 41.6889 107.046 41.6889C104.379 41.6889 104.046 41.3559 104.046 38.6889C104.046 36.0219 104.379 35.6889 107.046 35.6889C109.713 35.6889 110.046 36.0219 110.046 38.6889ZM117.72 38.4389C117.556 40.6279 116.956 41.2539 114.78 41.5049C112.327 41.7889 112.046 41.5069 112.046 38.7549C112.046 36.0289 112.372 35.6889 114.986 35.6889C117.577 35.6889 117.902 36.0159 117.72 38.4389ZM126.046 38.6889C126.046 41.4509 125.768 41.6889 122.546 41.6889C119.324 41.6889 119.046 41.4509 119.046 38.6889C119.046 35.9269 119.324 35.6889 122.546 35.6889C125.768 35.6889 126.046 35.9269 126.046 38.6889ZM131.046 36.5779C131.046 37.0669 130.161 38.5299 129.079 39.8279L127.113 42.1889L127.079 38.9389C127.053 36.3449 127.449 35.6889 129.046 35.6889C130.146 35.6889 131.046 36.0889 131.046 36.5779ZM141.046 38.6889C141.046 41.3159 140.694 41.6889 138.213 41.6889C134.512 41.6889 133.948 40.9979 135.273 38.0889C135.974 36.5509 137.207 35.6889 138.707 35.6889C140.639 35.6889 141.046 36.2109 141.046 38.6889ZM148.046 38.6889C148.046 41.3559 147.713 41.6889 145.046 41.6889C142.379 41.6889 142.046 41.3559 142.046 38.6889C142.046 36.0219 142.379 35.6889 145.046 35.6889C147.713 35.6889 148.046 36.0219 148.046 38.6889ZM162.862 38.4389C162.614 40.5989 161.956 41.2569 159.796 41.5049C157.325 41.7899 157.046 41.5109 157.046 38.7549C157.046 35.9999 157.357 35.6889 160.112 35.6889C162.868 35.6889 163.147 35.9679 162.862 38.4389ZM170.046 38.6889C170.046 41.3559 169.713 41.6889 167.046 41.6889C164.379 41.6889 164.046 41.3559 164.046 38.6889C164.046 36.0219 164.379 35.6889 167.046 35.6889C169.713 35.6889 170.046 36.0219 170.046 38.6889ZM177.046 38.6889C177.046 41.3559 176.713 41.6889 174.046 41.6889C171.379 41.6889 171.046 41.3559 171.046 38.6889C171.046 36.0219 171.379 35.6889 174.046 35.6889C176.713 35.6889 177.046 36.0219 177.046 38.6889ZM186.046 38.6889C186.046 41.4509 185.768 41.6889 182.546 41.6889C179.324 41.6889 179.046 41.4509 179.046 38.6889C179.046 35.9269 179.324 35.6889 182.546 35.6889C185.768 35.6889 186.046 35.9269 186.046 38.6889ZM193.046 38.6889C193.046 41.3559 192.713 41.6889 190.046 41.6889C187.379 41.6889 187.046 41.3559 187.046 38.6889C187.046 36.0219 187.379 35.6889 190.046 35.6889C192.713 35.6889 193.046 36.0219 193.046 38.6889ZM201.046 37.1069C201.046 40.0119 199.765 41.6889 197.546 41.6889C195.327 41.6889 194.046 40.0119 194.046 37.1069C194.046 36.1529 195.191 35.6889 197.546 35.6889C199.901 35.6889 201.046 36.1529 201.046 37.1069ZM208.046 38.6889C208.046 41.3559 207.713 41.6889 205.046 41.6889C202.379 41.6889 202.046 41.3559 202.046 38.6889C202.046 36.0219 202.379 35.6889 205.046 35.6889C207.713 35.6889 208.046 36.0219 208.046 38.6889ZM215.046 38.6889C215.046 41.3559 214.713 41.6889 212.046 41.6889C209.379 41.6889 209.046 41.3559 209.046 38.6889C209.046 36.0219 209.379 35.6889 212.046 35.6889C214.713 35.6889 215.046 36.0219 215.046 38.6889ZM222.862 38.4389C222.614 40.5989 221.956 41.2569 219.796 41.5049C217.325 41.7899 217.046 41.5109 217.046 38.7549C217.046 35.9999 217.357 35.6889 220.112 35.6889C222.868 35.6889 223.147 35.9679 222.862 38.4389ZM230.046 38.6889C230.046 41.3559 229.713 41.6889 227.046 41.6889C224.379 41.6889 224.046 41.3559 224.046 38.6889C224.046 36.0219 224.379 35.6889 227.046 35.6889C229.713 35.6889 230.046 36.0219 230.046 38.6889ZM237.046 38.7549C237.046 41.5109 236.767 41.7899 234.296 41.5049C232.136 41.2569 231.478 40.5989 231.23 38.4389C230.945 35.9679 231.224 35.6889 233.98 35.6889C236.735 35.6889 237.046 35.9999 237.046 38.7549ZM253.046 38.6889C253.046 41.3559 252.713 41.6889 250.046 41.6889C247.379 41.6889 247.046 41.3559 247.046 38.6889C247.046 36.0219 247.379 35.6889 250.046 35.6889C252.713 35.6889 253.046 36.0219 253.046 38.6889ZM260.046 38.6889C260.046 41.3559 259.713 41.6889 257.046 41.6889C254.379 41.6889 254.046 41.3559 254.046 38.6889C254.046 36.0219 254.379 35.6889 257.046 35.6889C259.713 35.6889 260.046 36.0219 260.046 38.6889ZM267.862 38.4389C267.614 40.5989 266.956 41.2569 264.796 41.5049C262.325 41.7899 262.046 41.5109 262.046 38.7549C262.046 35.9999 262.357 35.6889 265.112 35.6889C267.868 35.6889 268.147 35.9679 267.862 38.4389ZM275.046 38.6889C275.046 41.3559 274.713 41.6889 272.046 41.6889C269.379 41.6889 269.046 41.3559 269.046 38.6889C269.046 36.0219 269.379 35.6889 272.046 35.6889C274.713 35.6889 275.046 36.0219 275.046 38.6889ZM282.046 38.7549C282.046 41.5109 281.767 41.7899 279.296 41.5049C277.136 41.2569 276.478 40.5989 276.23 38.4389C275.945 35.9679 276.224 35.6889 278.98 35.6889C281.735 35.6889 282.046 35.9999 282.046 38.7549ZM290.046 38.6889C290.046 41.3559 289.713 41.6889 287.046 41.6889C284.379 41.6889 284.046 41.3559 284.046 38.6889C284.046 36.0219 284.379 35.6889 287.046 35.6889C289.713 35.6889 290.046 36.0219 290.046 38.6889ZM305.046 38.7519C305.046 41.6059 304.824 41.7939 301.796 41.5019C299.088 41.2409 298.493 40.7299 298.23 38.4389C297.937 35.8939 298.179 35.6889 301.48 35.6889C304.792 35.6889 305.046 35.9069 305.046 38.7519ZM312.862 38.4389C312.614 40.5989 311.956 41.2569 309.796 41.5049C307.325 41.7899 307.046 41.5109 307.046 38.7549C307.046 35.9999 307.357 35.6889 310.112 35.6889C312.868 35.6889 313.147 35.9679 312.862 38.4389ZM320.046 38.6889C320.046 41.3559 319.713 41.6889 317.046 41.6889C314.379 41.6889 314.046 41.3559 314.046 38.6889C314.046 36.0219 314.379 35.6889 317.046 35.6889C319.713 35.6889 320.046 36.0219 320.046 38.6889ZM342.046 38.6889C342.046 41.3559 341.713 41.6889 339.046 41.6889C336.379 41.6889 336.046 41.3559 336.046 38.6889C336.046 36.0219 336.379 35.6889 339.046 35.6889C341.713 35.6889 342.046 36.0219 342.046 38.6889ZM349.862 38.4389C349.614 40.5989 348.956 41.2569 346.796 41.5049C345.284 41.6789 343.989 41.4539 343.918 41.0049C343.128 35.9489 343.267 35.6889 346.749 35.6889C349.901 35.6889 350.153 35.9119 349.862 38.4389ZM357.046 38.6889C357.046 41.3559 356.713 41.6889 354.046 41.6889C351.379 41.6889 351.046 41.3559 351.046 38.6889C351.046 36.0219 351.379 35.6889 354.046 35.6889C356.713 35.6889 357.046 36.0219 357.046 38.6889ZM365.046 38.6889C365.046 41.4509 364.768 41.6889 361.546 41.6889C358.324 41.6889 358.046 41.4509 358.046 38.6889C358.046 35.9269 358.324 35.6889 361.546 35.6889C364.768 35.6889 365.046 35.9269 365.046 38.6889ZM372.046 38.6889C372.046 41.2219 371.657 41.6889 369.546 41.6889C367.435 41.6889 367.046 41.2219 367.046 38.6889C367.046 36.1559 367.435 35.6889 369.546 35.6889C371.657 35.6889 372.046 36.1559 372.046 38.6889ZM380.046 38.6889C380.046 41.3559 379.713 41.6889 377.046 41.6889C374.379 41.6889 374.046 41.3559 374.046 38.6889C374.046 36.0219 374.379 35.6889 377.046 35.6889C379.713 35.6889 380.046 36.0219 380.046 38.6889ZM387.046 38.6889C387.046 41.3559 386.713 41.6889 384.046 41.6889C381.379 41.6889 381.046 41.3559 381.046 38.6889C381.046 36.0219 381.379 35.6889 384.046 35.6889C386.713 35.6889 387.046 36.0219 387.046 38.6889ZM394.653 37.2709C394.319 38.1409 394.046 39.5209 394.046 40.3369C394.046 41.3669 393.203 41.7249 391.296 41.5049C389.136 41.2569 388.478 40.5989 388.23 38.4389C387.935 35.8809 388.169 35.6889 391.587 35.6889C394.525 35.6889 395.139 36.0049 394.653 37.2709ZM401.011 37.6229C402.685 40.7509 402.231 41.6889 399.046 41.6889C396.379 41.6889 396.046 41.3559 396.046 38.6889C396.046 36.3739 396.494 35.6889 398.011 35.6889C399.091 35.6889 400.441 36.5589 401.011 37.6229ZM409.046 38.8559C409.046 40.5969 408.91 41.8349 408.743 41.6059C408.577 41.3769 407.667 39.9509 406.72 38.4389C405.056 35.7779 405.066 35.6889 407.023 35.6889C408.628 35.6889 409.046 36.3439 409.046 38.8559ZM432.381 37.8629C432.694 39.0579 432.751 40.3569 432.508 40.7499C432.265 41.1429 429.137 41.4809 425.556 41.5019L419.046 41.5389V38.6139V35.6889H425.429C431.142 35.6889 431.872 35.9179 432.381 37.8629ZM440.543 37.6799C440.891 38.7749 440.894 40.1249 440.552 40.6799C439.507 42.3699 436.18 41.8069 435.081 39.7549C433.414 36.6399 433.858 35.6889 436.979 35.6889C439.029 35.6889 440.101 36.2879 440.543 37.6799ZM451.853 38.5349C451.521 41.4089 448.898 42.3709 444.444 41.2529C442.738 40.8249 442.046 39.9509 442.046 38.2269C442.046 35.9769 442.407 35.8059 447.103 35.8429C451.978 35.8799 452.149 35.9779 451.853 38.5349ZM455.046 38.6889C455.046 40.3389 454.589 41.6889 454.03 41.6889C453.471 41.6889 453.117 40.3389 453.243 38.6889C453.369 37.0389 453.826 35.6889 454.259 35.6889C454.692 35.6889 455.046 37.0389 455.046 38.6889ZM81.046 45.6889C81.046 48.0219 80.602 48.6889 79.046 48.6889C77.49 48.6889 77.046 48.0219 77.046 45.6889C77.046 43.3559 77.49 42.6889 79.046 42.6889C80.602 42.6889 81.046 43.3559 81.046 45.6889ZM85.046 45.6889C85.046 47.6889 84.546 48.6889 83.546 48.6889C82.546 48.6889 82.046 47.6889 82.046 45.6889C82.046 43.6889 82.546 42.6889 83.546 42.6889C84.546 42.6889 85.046 43.6889 85.046 45.6889ZM88.046 45.6889C88.046 47.3389 87.596 48.6889 87.046 48.6889C86.496 48.6889 86.046 47.3389 86.046 45.6889C86.046 44.0389 86.496 42.6889 87.046 42.6889C87.596 42.6889 88.046 44.0389 88.046 45.6889ZM95.046 45.6889C95.046 48.2219 94.657 48.6889 92.546 48.6889C90.435 48.6889 90.046 48.2219 90.046 45.6889C90.046 43.1559 90.435 42.6889 92.546 42.6889C94.657 42.6889 95.046 43.1559 95.046 45.6889ZM103.046 45.6889C103.046 48.3559 102.713 48.6889 100.046 48.6889C97.379 48.6889 97.046 48.3559 97.046 45.6889C97.046 43.0219 97.379 42.6889 100.046 42.6889C102.713 42.6889 103.046 43.0219 103.046 45.6889ZM110.046 45.6889C110.046 48.3559 109.713 48.6889 107.046 48.6889C104.379 48.6889 104.046 48.3559 104.046 45.6889C104.046 43.0219 104.379 42.6889 107.046 42.6889C109.713 42.6889 110.046 43.0219 110.046 45.6889ZM117.752 45.9389C118.078 48.4139 117.811 48.6889 115.08 48.6889C112.361 48.6889 112.046 48.3709 112.046 45.6229C112.046 42.8869 112.334 42.5899 114.718 42.8729C116.777 43.1169 117.472 43.8189 117.752 45.9389ZM125.862 45.4389C125.599 47.7299 125.004 48.2409 122.296 48.5019C119.268 48.7939 119.046 48.6059 119.046 45.7519C119.046 42.9069 119.3 42.6889 122.612 42.6889C125.913 42.6889 126.155 42.8939 125.862 45.4389ZM133.297 50.4389C132.841 56.2419 132.633 56.6889 130.394 56.6889C129.068 56.6889 127.738 56.0489 127.438 55.2669C126.658 53.2349 128.807 49.6919 130.831 49.6739C132.059 49.6629 132.192 49.4339 131.299 48.8669C130.303 48.2339 130.303 47.5429 131.299 45.4319C133.131 41.5489 133.854 43.3609 133.297 50.4389ZM141.046 45.6889C141.046 48.3559 140.713 48.6889 138.046 48.6889C135.379 48.6889 135.046 48.3559 135.046 45.6889C135.046 43.0219 135.379 42.6889 138.046 42.6889C140.713 42.6889 141.046 43.0219 141.046 45.6889ZM148.046 45.6889C148.046 48.3559 147.713 48.6889 145.046 48.6889C142.379 48.6889 142.046 48.3559 142.046 45.6889C142.046 43.0219 142.379 42.6889 145.046 42.6889C147.713 42.6889 148.046 43.0219 148.046 45.6889ZM155.236 43.2129C155.524 43.4999 155.547 44.8499 155.286 46.2129C154.94 48.0229 154.172 48.6889 152.429 48.6889C150.448 48.6889 150.046 48.1829 150.046 45.6889C150.046 43.2129 150.453 42.6889 152.379 42.6889C153.663 42.6889 154.948 42.9249 155.236 43.2129ZM162.622 45.9389C162.877 48.3789 162.579 48.6889 159.978 48.6889C157.373 48.6889 157.046 48.3469 157.046 45.6229C157.046 42.8939 157.337 42.5909 159.691 42.8729C161.744 43.1179 162.399 43.8039 162.622 45.9389ZM170.046 45.6889C170.046 48.3559 169.713 48.6889 167.046 48.6889C164.379 48.6889 164.046 48.3559 164.046 45.6889C164.046 43.0219 164.379 42.6889 167.046 42.6889C169.713 42.6889 170.046 43.0219 170.046 45.6889ZM177.046 45.6889C177.046 48.3559 176.713 48.6889 174.046 48.6889C171.379 48.6889 171.046 48.3559 171.046 45.6889C171.046 43.0219 171.379 42.6889 174.046 42.6889C176.713 42.6889 177.046 43.0219 177.046 45.6889ZM186.046 45.6889C186.046 48.4509 185.768 48.6889 182.546 48.6889C179.324 48.6889 179.046 48.4509 179.046 45.6889C179.046 42.9269 179.324 42.6889 182.546 42.6889C185.768 42.6889 186.046 42.9269 186.046 45.6889ZM193.046 45.6889C193.046 48.3559 192.713 48.6889 190.046 48.6889C187.379 48.6889 187.046 48.3559 187.046 45.6889C187.046 43.0219 187.379 42.6889 190.046 42.6889C192.713 42.6889 193.046 43.0219 193.046 45.6889ZM200.622 45.9389C200.883 48.4379 200.611 48.6889 197.63 48.6889C194.658 48.6889 194.342 48.4019 194.263 45.6309C194.183 42.7989 194.405 42.5949 197.256 42.8809C199.787 43.1339 200.386 43.6779 200.622 45.9389ZM208.046 45.6889C208.046 48.3559 207.713 48.6889 205.046 48.6889C202.379 48.6889 202.046 48.3559 202.046 45.6889C202.046 43.0219 202.379 42.6889 205.046 42.6889C207.713 42.6889 208.046 43.0219 208.046 45.6889ZM215.046 45.6889C215.046 48.3559 214.713 48.6889 212.046 48.6889C209.379 48.6889 209.046 48.3559 209.046 45.6889C209.046 43.0219 209.379 42.6889 212.046 42.6889C214.713 42.6889 215.046 43.0219 215.046 45.6889ZM222.862 45.9389C223.147 48.4099 222.868 48.6889 220.112 48.6889C217.357 48.6889 217.046 48.3779 217.046 45.6229C217.046 42.8669 217.325 42.5879 219.796 42.8729C221.956 43.1209 222.614 43.7789 222.862 45.9389ZM230.046 45.6889C230.046 48.3559 229.713 48.6889 227.046 48.6889C224.379 48.6889 224.046 48.3559 224.046 45.6889C224.046 43.0219 224.379 42.6889 227.046 42.6889C229.713 42.6889 230.046 43.0219 230.046 45.6889ZM237.046 45.6889C237.046 48.3559 236.713 48.6889 234.046 48.6889C231.379 48.6889 231.046 48.3559 231.046 45.6889C231.046 43.0219 231.379 42.6889 234.046 42.6889C236.713 42.6889 237.046 43.0219 237.046 45.6889ZM245.046 45.6889C245.046 48.4399 244.761 48.6889 241.614 48.6889C238.449 48.6889 238.211 48.4749 238.545 45.9389C238.745 44.4269 238.939 43.0759 238.977 42.9389C239.015 42.8019 240.396 42.6889 242.046 42.6889C244.713 42.6889 245.046 43.0219 245.046 45.6889ZM253.046 45.6889C253.046 48.3559 252.713 48.6889 250.046 48.6889C247.379 48.6889 247.046 48.3559 247.046 45.6889C247.046 43.0219 247.379 42.6889 250.046 42.6889C252.713 42.6889 253.046 43.0219 253.046 45.6889ZM260.046 45.6889C260.046 48.3559 259.713 48.6889 257.046 48.6889C254.379 48.6889 254.046 48.3559 254.046 45.6889C254.046 43.0219 254.379 42.6889 257.046 42.6889C259.713 42.6889 260.046 43.0219 260.046 45.6889ZM268.046 45.6889C268.046 48.3559 267.713 48.6889 265.046 48.6889C262.379 48.6889 262.046 48.3559 262.046 45.6889C262.046 43.0219 262.379 42.6889 265.046 42.6889C267.713 42.6889 268.046 43.0219 268.046 45.6889ZM275.046 45.6889C275.046 48.3559 274.713 48.6889 272.046 48.6889C269.379 48.6889 269.046 48.3559 269.046 45.6889C269.046 43.0219 269.379 42.6889 272.046 42.6889C274.713 42.6889 275.046 43.0219 275.046 45.6889ZM282.046 45.6889C282.046 48.3559 281.713 48.6889 279.046 48.6889C276.379 48.6889 276.046 48.3559 276.046 45.6889C276.046 43.0219 276.379 42.6889 279.046 42.6889C281.713 42.6889 282.046 43.0219 282.046 45.6889ZM290.046 45.6889C290.046 48.3559 289.713 48.6889 287.046 48.6889C284.379 48.6889 284.046 48.3559 284.046 45.6889C284.046 43.0219 284.379 42.6889 287.046 42.6889C289.713 42.6889 290.046 43.0219 290.046 45.6889ZM297.046 45.6889C297.046 48.3559 296.713 48.6889 294.046 48.6889C291.379 48.6889 291.046 48.3559 291.046 45.6889C291.046 43.0219 291.379 42.6889 294.046 42.6889C296.713 42.6889 297.046 43.0219 297.046 45.6889ZM305.046 45.6889C305.046 48.4559 304.772 48.6889 301.512 48.6889C298.213 48.6889 298.008 48.5059 298.43 45.9389C298.678 44.4269 298.919 43.0759 298.964 42.9389C299.009 42.8019 300.396 42.6889 302.046 42.6889C304.713 42.6889 305.046 43.0219 305.046 45.6889ZM312.862 45.9389C313.147 48.4099 312.868 48.6889 310.112 48.6889C307.357 48.6889 307.046 48.3779 307.046 45.6229C307.046 42.8669 307.325 42.5879 309.796 42.8729C311.956 43.1209 312.614 43.7789 312.862 45.9389ZM320.046 45.6889C320.046 48.3559 319.713 48.6889 317.046 48.6889C314.379 48.6889 314.046 48.3559 314.046 45.6889C314.046 43.0219 314.379 42.6889 317.046 42.6889C319.713 42.6889 320.046 43.0219 320.046 45.6889ZM327.046 45.6889C327.046 48.3559 326.713 48.6889 324.046 48.6889C321.379 48.6889 321.046 48.3559 321.046 45.6889C321.046 43.0219 321.379 42.6889 324.046 42.6889C326.713 42.6889 327.046 43.0219 327.046 45.6889ZM335.046 45.6889C335.046 48.3559 334.713 48.6889 332.046 48.6889C329.379 48.6889 329.046 48.3559 329.046 45.6889C329.046 43.0219 329.379 42.6889 332.046 42.6889C334.713 42.6889 335.046 43.0219 335.046 45.6889ZM342.046 45.6889C342.046 48.3559 341.713 48.6889 339.046 48.6889C336.379 48.6889 336.046 48.3559 336.046 45.6889C336.046 43.0219 336.379 42.6889 339.046 42.6889C341.713 42.6889 342.046 43.0219 342.046 45.6889ZM349.497 45.9389C349.6 48.3929 349.265 48.6889 346.397 48.6889C343.21 48.6889 342.882 47.9009 343.977 42.8729C344.015 42.6989 345.247 42.6989 346.714 42.8729C348.847 43.1249 349.406 43.7409 349.497 45.9389ZM357.046 45.6889C357.046 48.3559 356.713 48.6889 354.046 48.6889C351.379 48.6889 351.046 48.3559 351.046 45.6889C351.046 43.0219 351.379 42.6889 354.046 42.6889C356.713 42.6889 357.046 43.0219 357.046 45.6889ZM365.046 45.6889C365.046 48.4509 364.768 48.6889 361.546 48.6889C358.324 48.6889 358.046 48.4509 358.046 45.6889C358.046 42.9269 358.324 42.6889 361.546 42.6889C364.768 42.6889 365.046 42.9269 365.046 45.6889ZM372.046 45.6889C372.046 48.2219 371.657 48.6889 369.546 48.6889C367.435 48.6889 367.046 48.2219 367.046 45.6889C367.046 43.1559 367.435 42.6889 369.546 42.6889C371.657 42.6889 372.046 43.1559 372.046 45.6889ZM380.046 45.6889C380.046 48.3559 379.713 48.6889 377.046 48.6889C374.379 48.6889 374.046 48.3559 374.046 45.6889C374.046 43.0219 374.379 42.6889 377.046 42.6889C379.713 42.6889 380.046 43.0219 380.046 45.6889ZM387.046 45.6889C387.046 48.3559 386.713 48.6889 384.046 48.6889C381.379 48.6889 381.046 48.3559 381.046 45.6889C381.046 43.0219 381.379 42.6889 384.046 42.6889C386.713 42.6889 387.046 43.0219 387.046 45.6889ZM394.497 45.9389C394.6 48.4089 394.275 48.6889 391.295 48.6889C388.233 48.6889 388.012 48.4769 388.43 45.9389C388.678 44.4269 388.919 43.0469 388.964 42.8729C389.009 42.6989 390.247 42.6989 391.714 42.8729C393.847 43.1249 394.406 43.7409 394.497 45.9389ZM402.046 45.6889C402.046 48.3559 401.713 48.6889 399.046 48.6889C396.379 48.6889 396.046 48.3559 396.046 45.6889C396.046 43.0219 396.379 42.6889 399.046 42.6889C401.713 42.6889 402.046 43.0219 402.046 45.6889ZM405.546 45.6889C407.023 48.5459 407.001 48.6889 405.072 48.6889C403.488 48.6889 403.046 48.0349 403.046 45.6889C403.046 44.0389 403.259 42.6889 403.52 42.6889C403.781 42.6889 404.693 44.0389 405.546 45.6889ZM418.046 45.6889C418.046 48.3629 417.716 48.6889 415.014 48.6889C412.788 48.6889 411.755 48.0909 411.131 46.4389C409.969 43.3629 410.593 42.6889 414.605 42.6889C417.762 42.6889 418.046 42.9369 418.046 45.6889ZM425.046 45.6889C425.046 48.3559 424.713 48.6889 422.046 48.6889C419.379 48.6889 419.046 48.3559 419.046 45.6889C419.046 43.0219 419.379 42.6889 422.046 42.6889C424.713 42.6889 425.046 43.0219 425.046 45.6889ZM440.405 45.5639C439.565 49.1369 438.916 49.6219 436.313 48.6229C434.86 48.0659 434.286 47.2279 434.67 46.2269C434.994 45.3809 434.762 44.6889 434.153 44.6889C433.544 44.6889 433.046 45.5889 433.046 46.6889C433.046 48.3069 432.379 48.6889 429.552 48.6889C426.788 48.6889 426.115 48.3239 426.331 46.9389C426.866 43.5049 428.023 42.9389 434.515 42.9389H441.021L440.405 45.5639ZM460.361 46.0669C460.652 46.8249 460.451 47.8839 459.914 48.4209C459.378 48.9569 458.909 52.6119 458.872 56.5419C458.834 60.6039 458.372 63.6889 457.803 63.6889C457.25 63.6889 457.371 64.3749 458.071 65.2189C459.039 66.3849 459.074 67.3309 458.22 69.2069C457.604 70.5589 457.365 72.3569 457.69 73.2029C458.629 75.6519 460.846 73.0939 460.293 70.1989C460.032 68.8369 460.155 66.9269 460.565 65.9559C461.701 63.2639 461.896 44.6889 460.788 44.6889C460.262 44.6889 460.07 45.3089 460.361 46.0669ZM80.859 53.5159C81.12 56.1559 80.826 56.6889 79.109 56.6889C77.51 56.6889 77.046 56.0509 77.046 53.8559C77.046 48.5759 80.343 48.2829 80.859 53.5159ZM85.046 53.2719C85.046 55.6939 84.641 56.7209 83.796 56.4389C81.446 55.6569 81.64 49.6889 84.015 49.6889C84.582 49.6889 85.046 51.3019 85.046 53.2719ZM88.046 53.2479C88.046 55.3659 87.641 56.5569 87.046 56.1889C85.388 55.1639 85.95 49.6889 87.713 49.6889C87.896 49.6889 88.046 51.2909 88.046 53.2479ZM95.26 52.6949C95.782 56.2489 95.464 56.6889 92.379 56.6889C90.379 56.6889 90.046 56.1889 90.046 53.1889C90.046 50.1669 90.372 49.6889 92.433 49.6889C94.321 49.6889 94.911 50.3169 95.26 52.6949ZM102.546 53.1889C102.546 55.7179 102.115 56.2389 99.796 56.5049C97.243 56.7989 97.046 56.5619 97.046 53.1889C97.046 49.8159 97.243 49.5789 99.796 49.8729C102.115 50.1389 102.546 50.6599 102.546 53.1889ZM110.046 53.2549C110.046 56.5539 109.84 56.7979 107.305 56.5049C102.688 55.9729 102.881 49.6889 107.515 49.6889C109.75 49.6889 110.046 50.1059 110.046 53.2549ZM117.546 53.1889C117.546 55.7179 117.115 56.2389 114.796 56.5049C112.243 56.7989 112.046 56.5619 112.046 53.1889C112.046 49.8159 112.243 49.5789 114.796 49.8729C117.115 50.1389 117.546 50.6599 117.546 53.1889ZM123.046 51.0779C123.046 51.8419 122.161 53.5299 121.079 54.8279L119.113 57.1889L119.079 53.4389C119.052 50.3449 119.396 49.6889 121.046 49.6889C122.146 49.6889 123.046 50.3139 123.046 51.0779ZM140.859 53.4389C141.151 56.4669 140.963 56.6889 138.109 56.6889C135.264 56.6889 135.046 56.4349 135.046 53.1229C135.046 49.8219 135.251 49.5799 137.796 49.8729C140.087 50.1359 140.598 50.7309 140.859 53.4389ZM148.046 53.1889C148.046 56.4109 147.808 56.6889 145.046 56.6889C142.284 56.6889 142.046 56.4109 142.046 53.1889C142.046 49.9669 142.284 49.6889 145.046 49.6889C147.808 49.6889 148.046 49.9669 148.046 53.1889ZM155.046 53.1889C155.046 56.2109 154.72 56.6889 152.659 56.6889C150.771 56.6889 150.181 56.0609 149.832 53.6829C149.31 50.1289 149.628 49.6889 152.713 49.6889C154.713 49.6889 155.046 50.1889 155.046 53.1889ZM162.546 53.1889C162.546 55.7179 162.115 56.2389 159.796 56.5049C157.243 56.7989 157.046 56.5619 157.046 53.1889C157.046 49.8159 157.243 49.5789 159.796 49.8729C162.115 50.1389 162.546 50.6599 162.546 53.1889ZM170.046 53.1889C170.046 56.4109 169.808 56.6889 167.046 56.6889C164.419 56.6889 164.046 56.3369 164.046 53.8559C164.046 50.4139 164.684 49.6889 167.713 49.6889C169.713 49.6889 170.046 50.1889 170.046 53.1889ZM177.046 53.2549C177.046 56.5539 176.84 56.7979 174.305 56.5049C169.688 55.9729 169.881 49.6889 174.515 49.6889C176.75 49.6889 177.046 50.1059 177.046 53.2549ZM185.546 53.1889C185.546 55.8429 185.171 56.2249 182.296 56.5019C179.203 56.8009 179.046 56.6509 179.046 53.4019C179.046 50.1979 179.245 49.9949 182.296 50.0889C185.218 50.1789 185.546 50.4919 185.546 53.1889ZM193.046 53.1889C193.046 56.4109 192.808 56.6889 190.046 56.6889C187.284 56.6889 187.046 56.4109 187.046 53.1889C187.046 49.9669 187.284 49.6889 190.046 49.6889C192.808 49.6889 193.046 49.9669 193.046 53.1889ZM200.54 53.1889C200.534 55.8529 200.198 56.1889 197.54 56.1889C195.05 56.1889 194.523 55.7679 194.408 53.6889C194.217 50.2059 194.836 49.5279 197.89 49.8819C200.108 50.1379 200.545 50.6839 200.54 53.1889ZM207.859 53.4389C208.151 56.4669 207.963 56.6889 205.109 56.6889C202.264 56.6889 202.046 56.4349 202.046 53.1229C202.046 49.8219 202.251 49.5799 204.796 49.8729C207.087 50.1359 207.598 50.7309 207.859 53.4389ZM215.046 53.2549C215.046 56.5539 214.84 56.7979 212.305 56.5049C207.688 55.9729 207.881 49.6889 212.515 49.6889C214.75 49.6889 215.046 50.1059 215.046 53.2549ZM222.546 53.1889C222.546 55.7179 222.115 56.2389 219.796 56.5049C217.243 56.7989 217.046 56.5619 217.046 53.1889C217.046 49.8159 217.243 49.5789 219.796 49.8729C222.115 50.1389 222.546 50.6599 222.546 53.1889ZM230.046 53.1889C230.046 56.4109 229.808 56.6889 227.046 56.6889C224.284 56.6889 224.046 56.4109 224.046 53.1889C224.046 49.9669 224.284 49.6889 227.046 49.6889C229.808 49.6889 230.046 49.9669 230.046 53.1889ZM237.046 53.2549C237.046 56.5539 236.84 56.7979 234.305 56.5049C229.688 55.9729 229.881 49.6889 234.515 49.6889C236.75 49.6889 237.046 50.1059 237.046 53.2549ZM245.046 53.2519C245.046 56.6699 244.913 56.8029 241.796 56.5019C239.125 56.2449 238.521 55.7439 238.408 53.6889C238.218 50.2359 238.723 49.6889 242.105 49.6889C244.809 49.6889 245.046 49.9759 245.046 53.2519ZM252.859 53.4389C253.151 56.4669 252.963 56.6889 250.109 56.6889C247.264 56.6889 247.046 56.4349 247.046 53.1229C247.046 49.8219 247.251 49.5799 249.796 49.8729C252.087 50.1359 252.598 50.7309 252.859 53.4389ZM260.046 53.2549C260.046 56.5539 259.84 56.7979 257.305 56.5049C252.688 55.9729 252.881 49.6889 257.515 49.6889C259.75 49.6889 260.046 50.1059 260.046 53.2549ZM267.546 53.1889C267.546 55.7179 267.115 56.2389 264.796 56.5049C262.243 56.7989 262.046 56.5619 262.046 53.1889C262.046 49.8159 262.243 49.5789 264.796 49.8729C267.115 50.1389 267.546 50.6599 267.546 53.1889ZM275.046 53.1889C275.046 56.4109 274.808 56.6889 272.046 56.6889C269.284 56.6889 269.046 56.4109 269.046 53.1889C269.046 49.9669 269.284 49.6889 272.046 49.6889C274.808 49.6889 275.046 49.9669 275.046 53.1889ZM282.046 53.2549C282.046 56.5539 281.84 56.7979 279.305 56.5049C274.688 55.9729 274.881 49.6889 279.515 49.6889C281.75 49.6889 282.046 50.1059 282.046 53.2549ZM289.546 53.2099C289.546 55.7159 289.11 56.2389 286.796 56.5049C284.259 56.7969 284.046 56.5509 284.046 53.3149C284.046 50.1049 284.279 49.8269 286.796 50.0199C289.133 50.1999 289.546 50.6789 289.546 53.2099ZM296.859 53.5169C297.15 56.4579 296.949 56.6889 294.109 56.6889C291.269 56.6889 291.046 56.4309 291.046 53.1549C291.046 49.8779 291.246 49.6469 293.796 49.9829C296.058 50.2809 296.602 50.9089 296.859 53.5169ZM305.046 53.2519C305.046 56.6679 304.912 56.8029 301.804 56.5019C296.398 55.9799 296.593 49.6889 302.015 49.6889C304.823 49.6889 305.046 49.9519 305.046 53.2519ZM312.546 53.1889C312.546 55.7179 312.115 56.2389 309.796 56.5049C307.243 56.7989 307.046 56.5619 307.046 53.1889C307.046 49.8159 307.243 49.5789 309.796 49.8729C312.115 50.1389 312.546 50.6599 312.546 53.1889ZM320.046 53.1889C320.046 56.4109 319.808 56.6889 317.046 56.6889C314.284 56.6889 314.046 56.4109 314.046 53.1889C314.046 49.9669 314.284 49.6889 317.046 49.6889C319.808 49.6889 320.046 49.9669 320.046 53.1889ZM327.207 50.1829C327.479 50.4549 327.499 52.0549 327.252 53.7379C326.867 56.3609 326.429 56.7549 324.183 56.4939C319.786 55.9819 319.938 49.6889 324.348 49.6889C325.649 49.6889 326.935 49.9109 327.207 50.1829ZM334.859 53.4389C335.151 56.4669 334.963 56.6889 332.109 56.6889C329.264 56.6889 329.046 56.4349 329.046 53.1229C329.046 49.8219 329.251 49.5799 331.796 49.8729C334.087 50.1359 334.598 50.7309 334.859 53.4389ZM342.046 53.1889C342.046 56.4109 341.808 56.6889 339.046 56.6889C336.419 56.6889 336.046 56.3369 336.046 53.8559C336.046 50.4139 336.684 49.6889 339.713 49.6889C341.713 49.6889 342.046 50.1889 342.046 53.1889ZM349.546 53.1889C349.546 55.8559 349.213 56.1889 346.546 56.1889C344.049 56.1889 343.523 55.7699 343.408 53.6889C343.217 50.2059 343.836 49.5279 346.89 49.8819C349.106 50.1379 349.546 50.6859 349.546 53.1889ZM357.046 53.3409C357.046 56.3939 356.782 56.6889 354.046 56.6889C351.295 56.6889 351.046 56.4039 351.046 53.2559C351.046 50.0889 351.279 49.8289 354.046 49.9079C356.765 49.9849 357.046 50.3069 357.046 53.3409ZM365.046 53.2519C365.046 56.6679 364.912 56.8029 361.804 56.5019C356.398 55.9799 356.593 49.6889 362.015 49.6889C364.823 49.6889 365.046 49.9519 365.046 53.2519ZM372.046 53.1889C372.046 56.2559 371.736 56.6889 369.546 56.6889C367.356 56.6889 367.046 56.2559 367.046 53.1889C367.046 50.1219 367.356 49.6889 369.546 49.6889C371.736 49.6889 372.046 50.1219 372.046 53.1889ZM379.546 53.2729C379.546 55.7109 379.095 56.2409 376.796 56.5049C374.247 56.7989 374.046 56.5589 374.046 53.2209C374.046 49.8709 374.237 49.6459 376.796 49.9889C379.083 50.2949 379.546 50.8479 379.546 53.2729ZM387.046 53.1889C387.046 56.4109 386.808 56.6889 384.046 56.6889C381.419 56.6889 381.046 56.3369 381.046 53.8559C381.046 50.4139 381.684 49.6889 384.713 49.6889C386.713 49.6889 387.046 50.1889 387.046 53.1889ZM394.451 53.1889C394.447 55.8239 394.097 56.1889 391.579 56.1889C389.242 56.1889 388.674 55.7259 388.505 53.6889C388.219 50.2239 388.83 49.5269 391.846 49.8819C394.013 50.1369 394.456 50.6989 394.451 53.1889ZM401.859 53.4389C402.151 56.4669 401.963 56.6889 399.109 56.6889C396.264 56.6889 396.046 56.4349 396.046 53.1229C396.046 49.8219 396.251 49.5799 398.796 49.8729C401.087 50.1359 401.598 50.7309 401.859 53.4389ZM408.439 51.2709C408.773 52.1409 409.046 53.7459 409.046 54.8369C409.046 56.4109 408.479 56.7559 406.305 56.5049C403.522 56.1839 402.34 53.9719 403.43 51.1309C404.173 49.1949 407.68 49.2929 408.439 51.2709ZM417.881 52.5539C418.438 56.4949 416.415 57.3039 414.631 53.8539C412.56 49.8489 412.62 49.4889 415.296 49.8689C416.78 50.0799 417.66 50.9939 417.881 52.5539ZM425.046 53.1889C425.046 56.4109 424.808 56.6889 422.046 56.6889C419.284 56.6889 419.046 56.4109 419.046 53.1889C419.046 49.9669 419.284 49.6889 422.046 49.6889C424.808 49.6889 425.046 49.9669 425.046 53.1889ZM437.862 50.6779C440.888 50.6879 441.151 50.9299 440.862 53.4389C440.599 55.7299 440.004 56.2409 437.296 56.5019C434.393 56.7819 434.046 56.5419 434.046 54.2519C434.046 52.8429 433.596 51.6889 433.046 51.6889C432.496 51.6889 432.046 52.8439 432.046 54.2549C432.046 56.4629 431.663 56.7779 429.305 56.5049C426.478 56.1789 425.342 53.9659 426.479 51.0029C426.941 49.7979 427.949 49.5759 430.814 50.0499C432.866 50.3889 436.038 50.6719 437.862 50.6779ZM448.046 56.6969C444.582 57.2469 444.597 57.2609 449.489 57.9779C452.207 58.3769 454.826 58.3089 455.309 57.8259C456.493 56.6419 452.4 56.0059 448.046 56.6969ZM81.046 60.6889C81.046 63.0219 80.602 63.6889 79.046 63.6889C77.49 63.6889 77.046 63.0219 77.046 60.6889C77.046 58.3559 77.49 57.6889 79.046 57.6889C80.602 57.6889 81.046 58.3559 81.046 60.6889ZM85.046 60.6889C85.046 62.6889 84.546 63.6889 83.546 63.6889C82.546 63.6889 82.046 62.6889 82.046 60.6889C82.046 58.6889 82.546 57.6889 83.546 57.6889C84.546 57.6889 85.046 58.6889 85.046 60.6889ZM88.046 60.6889C88.046 62.3389 87.596 63.6889 87.046 63.6889C86.496 63.6889 86.046 62.3389 86.046 60.6889C86.046 59.0389 86.496 57.6889 87.046 57.6889C87.596 57.6889 88.046 59.0389 88.046 60.6889ZM95.497 60.4389C95.406 62.6369 94.847 63.2529 92.714 63.5049C90.335 63.7879 90.046 63.4899 90.046 60.7549C90.046 58.0679 90.39 57.6889 92.829 57.6889C95.226 57.6889 95.596 58.0699 95.497 60.4389ZM103.046 60.6889C103.046 63.3559 102.713 63.6889 100.046 63.6889C97.379 63.6889 97.046 63.3559 97.046 60.6889C97.046 58.0219 97.379 57.6889 100.046 57.6889C102.713 57.6889 103.046 58.0219 103.046 60.6889ZM110.046 60.6889C110.046 63.3559 109.713 63.6889 107.046 63.6889C104.379 63.6889 104.046 63.3559 104.046 60.6889C104.046 58.0219 104.379 57.6889 107.046 57.6889C109.713 57.6889 110.046 58.0219 110.046 60.6889ZM118.046 59.1069C118.046 62.0469 116.754 63.6889 114.439 63.6889C112.447 63.6889 112.046 63.1869 112.046 60.6889C112.046 58.0219 112.379 57.6889 115.046 57.6889C116.969 57.6889 118.046 58.1979 118.046 59.1069ZM126.046 60.6889C126.046 63.0619 125.611 63.6889 123.963 63.6889C122.652 63.6889 122.095 63.2249 122.462 62.4389C122.783 61.7519 123.322 60.4019 123.662 59.4389C124.64 56.6659 126.046 57.4029 126.046 60.6889ZM133.286 60.1649C133.874 63.2389 133.439 63.6889 129.879 63.6889C127.398 63.6889 127.046 63.3159 127.046 60.6889C127.046 58.0489 127.392 57.6889 129.929 57.6889C132.204 57.6889 132.913 58.2119 133.286 60.1649ZM141.046 60.6889C141.046 63.3559 140.713 63.6889 138.046 63.6889C135.379 63.6889 135.046 63.3559 135.046 60.6889C135.046 58.0219 135.379 57.6889 138.046 57.6889C140.713 57.6889 141.046 58.0219 141.046 60.6889ZM148.046 60.6889C148.046 63.3559 147.713 63.6889 145.046 63.6889C142.379 63.6889 142.046 63.3559 142.046 60.6889C142.046 58.0219 142.379 57.6889 145.046 57.6889C147.713 57.6889 148.046 58.0219 148.046 60.6889ZM155.046 60.6889C155.046 63.1649 154.639 63.6889 152.713 63.6889C149.675 63.6889 149.234 63.1539 149.806 60.1649C150.152 58.3549 150.92 57.6889 152.663 57.6889C154.644 57.6889 155.046 58.1949 155.046 60.6889ZM162.647 60.4389C162.565 62.6649 162.022 63.2489 159.796 63.5049C157.325 63.7899 157.046 63.5109 157.046 60.7549C157.046 58.0509 157.382 57.6889 159.897 57.6889C162.365 57.6889 162.734 58.0579 162.647 60.4389ZM170.046 60.6889C170.046 63.3559 169.713 63.6889 167.046 63.6889C164.379 63.6889 164.046 63.3559 164.046 60.6889C164.046 58.0219 164.379 57.6889 167.046 57.6889C169.713 57.6889 170.046 58.0219 170.046 60.6889ZM177.046 60.6889C177.046 63.3559 176.713 63.6889 174.046 63.6889C171.379 63.6889 171.046 63.3559 171.046 60.6889C171.046 58.0219 171.379 57.6889 174.046 57.6889C176.713 57.6889 177.046 58.0219 177.046 60.6889ZM186.046 60.6889C186.046 63.4509 185.768 63.6889 182.546 63.6889C179.324 63.6889 179.046 63.4509 179.046 60.6889C179.046 57.9269 179.324 57.6889 182.546 57.6889C185.768 57.6889 186.046 57.9269 186.046 60.6889ZM193.046 60.6889C193.046 63.3559 192.713 63.6889 190.046 63.6889C187.379 63.6889 187.046 63.3559 187.046 60.6889C187.046 58.0219 187.379 57.6889 190.046 57.6889C192.713 57.6889 193.046 58.0219 193.046 60.6889ZM200.69 60.6889C200.802 63.4289 200.532 63.6889 197.581 63.6889C194.677 63.6889 194.342 63.3859 194.265 60.6889C194.188 57.9639 194.473 57.6889 197.373 57.6889C200.228 57.6889 200.58 58.0069 200.69 60.6889ZM208.046 60.6889C208.046 63.3559 207.713 63.6889 205.046 63.6889C202.379 63.6889 202.046 63.3559 202.046 60.6889C202.046 58.0219 202.379 57.6889 205.046 57.6889C207.713 57.6889 208.046 58.0219 208.046 60.6889ZM215.046 60.6889C215.046 63.3559 214.713 63.6889 212.046 63.6889C209.379 63.6889 209.046 63.3559 209.046 60.6889C209.046 58.0219 209.379 57.6889 212.046 57.6889C214.713 57.6889 215.046 58.0219 215.046 60.6889ZM222.862 60.4389C222.614 62.5989 221.956 63.2569 219.796 63.5049C217.325 63.7899 217.046 63.5109 217.046 60.7549C217.046 57.9999 217.357 57.6889 220.112 57.6889C222.868 57.6889 223.147 57.9679 222.862 60.4389ZM230.046 60.6889C230.046 63.3559 229.713 63.6889 227.046 63.6889C224.379 63.6889 224.046 63.3559 224.046 60.6889C224.046 58.0219 224.379 57.6889 227.046 57.6889C229.713 57.6889 230.046 58.0219 230.046 60.6889ZM237.046 60.6889C237.046 63.3559 236.713 63.6889 234.046 63.6889C231.379 63.6889 231.046 63.3559 231.046 60.6889C231.046 58.0219 231.379 57.6889 234.046 57.6889C236.713 57.6889 237.046 58.0219 237.046 60.6889ZM245.046 60.7519C245.046 63.5919 244.814 63.7929 241.878 63.5019C239.198 63.2369 238.692 62.7649 238.595 60.4389C238.492 57.9739 238.82 57.6889 241.763 57.6889C244.759 57.6889 245.046 57.9569 245.046 60.7519ZM253.046 60.6889C253.046 63.3559 252.713 63.6889 250.046 63.6889C247.379 63.6889 247.046 63.3559 247.046 60.6889C247.046 58.0219 247.379 57.6889 250.046 57.6889C252.713 57.6889 253.046 58.0219 253.046 60.6889ZM260.046 60.6889C260.046 63.3559 259.713 63.6889 257.046 63.6889C254.379 63.6889 254.046 63.3559 254.046 60.6889C254.046 58.0219 254.379 57.6889 257.046 57.6889C259.713 57.6889 260.046 58.0219 260.046 60.6889ZM268.046 60.6889C268.046 63.3559 267.713 63.6889 265.046 63.6889C262.379 63.6889 262.046 63.3559 262.046 60.6889C262.046 58.0219 262.379 57.6889 265.046 57.6889C267.713 57.6889 268.046 58.0219 268.046 60.6889ZM275.046 60.6889C275.046 63.3559 274.713 63.6889 272.046 63.6889C269.379 63.6889 269.046 63.3559 269.046 60.6889C269.046 58.0219 269.379 57.6889 272.046 57.6889C274.713 57.6889 275.046 58.0219 275.046 60.6889ZM282.046 60.6889C282.046 63.3559 281.713 63.6889 279.046 63.6889C276.379 63.6889 276.046 63.3559 276.046 60.6889C276.046 58.0219 276.379 57.6889 279.046 57.6889C281.713 57.6889 282.046 58.0219 282.046 60.6889ZM290.046 60.6889C290.046 63.3559 289.713 63.6889 287.046 63.6889C284.379 63.6889 284.046 63.3559 284.046 60.6889C284.046 58.0219 284.379 57.6889 287.046 57.6889C289.713 57.6889 290.046 58.0219 290.046 60.6889ZM297.046 60.6889C297.046 63.3559 296.713 63.6889 294.046 63.6889C291.379 63.6889 291.046 63.3559 291.046 60.6889C291.046 58.0219 291.379 57.6889 294.046 57.6889C296.713 57.6889 297.046 58.0219 297.046 60.6889ZM305.046 60.6889C305.046 63.4509 304.768 63.6889 301.546 63.6889C298.324 63.6889 298.046 63.4509 298.046 60.6889C298.046 57.9269 298.324 57.6889 301.546 57.6889C304.768 57.6889 305.046 57.9269 305.046 60.6889ZM313.046 60.6889C313.046 63.3559 312.713 63.6889 310.046 63.6889C307.379 63.6889 307.046 63.3559 307.046 60.6889C307.046 58.0219 307.379 57.6889 310.046 57.6889C312.713 57.6889 313.046 58.0219 313.046 60.6889ZM320.046 60.6889C320.046 63.3559 319.713 63.6889 317.046 63.6889C314.379 63.6889 314.046 63.3559 314.046 60.6889C314.046 58.0219 314.379 57.6889 317.046 57.6889C319.713 57.6889 320.046 58.0219 320.046 60.6889ZM327.046 60.6889C327.046 63.3559 326.713 63.6889 324.046 63.6889C321.379 63.6889 321.046 63.3559 321.046 60.6889C321.046 58.0219 321.379 57.6889 324.046 57.6889C326.713 57.6889 327.046 58.0219 327.046 60.6889ZM335.046 60.6889C335.046 63.3559 334.713 63.6889 332.046 63.6889C329.379 63.6889 329.046 63.3559 329.046 60.6889C329.046 58.0219 329.379 57.6889 332.046 57.6889C334.713 57.6889 335.046 58.0219 335.046 60.6889ZM342.046 60.6889C342.046 63.3559 341.713 63.6889 339.046 63.6889C336.379 63.6889 336.046 63.3559 336.046 60.6889C336.046 58.0219 336.379 57.6889 339.046 57.6889C341.713 57.6889 342.046 58.0219 342.046 60.6889ZM349.69 60.6889C349.799 63.3569 349.493 63.6889 346.929 63.6889C345.107 63.6889 344.046 63.1669 344.046 62.2709C344.046 61.4909 343.773 60.1409 343.439 59.2709C342.96 58.0209 343.54 57.6889 346.2 57.6889C349.247 57.6889 349.579 57.9739 349.69 60.6889ZM357.046 60.6889C357.046 63.3559 356.713 63.6889 354.046 63.6889C351.379 63.6889 351.046 63.3559 351.046 60.6889C351.046 58.0219 351.379 57.6889 354.046 57.6889C356.713 57.6889 357.046 58.0219 357.046 60.6889ZM365.046 60.6889C365.046 63.4509 364.768 63.6889 361.546 63.6889C358.324 63.6889 358.046 63.4509 358.046 60.6889C358.046 57.9269 358.324 57.6889 361.546 57.6889C364.768 57.6889 365.046 57.9269 365.046 60.6889ZM372.046 60.6889C372.046 63.2219 371.657 63.6889 369.546 63.6889C367.435 63.6889 367.046 63.2219 367.046 60.6889C367.046 58.1559 367.435 57.6889 369.546 57.6889C371.657 57.6889 372.046 58.1559 372.046 60.6889ZM380.046 60.6889C380.046 63.3559 379.713 63.6889 377.046 63.6889C374.379 63.6889 374.046 63.3559 374.046 60.6889C374.046 58.0219 374.379 57.6889 377.046 57.6889C379.713 57.6889 380.046 58.0219 380.046 60.6889ZM387.046 60.6889C387.046 63.3559 386.713 63.6889 384.046 63.6889C381.379 63.6889 381.046 63.3559 381.046 60.6889C381.046 58.0219 381.379 57.6889 384.046 57.6889C386.713 57.6889 387.046 58.0219 387.046 60.6889ZM394.492 60.4389C394.39 62.7559 393.93 63.1889 391.57 63.1889C389.252 63.1889 388.718 62.7149 388.476 60.4389C388.21 57.9479 388.486 57.6889 391.397 57.6889C394.267 57.6889 394.599 57.9839 394.492 60.4389ZM402.046 60.6889C402.046 63.3559 401.713 63.6889 399.046 63.6889C396.379 63.6889 396.046 63.3559 396.046 60.6889C396.046 58.0219 396.379 57.6889 399.046 57.6889C401.713 57.6889 402.046 58.0219 402.046 60.6889ZM409.046 60.6889C409.046 63.3559 408.713 63.6889 406.046 63.6889C403.379 63.6889 403.046 63.3559 403.046 60.6889C403.046 58.0219 403.379 57.6889 406.046 57.6889C408.713 57.6889 409.046 58.0219 409.046 60.6889ZM413.546 60.6889C415.023 63.5459 415.001 63.6889 413.072 63.6889C411.488 63.6889 411.046 63.0349 411.046 60.6889C411.046 59.0389 411.259 57.6889 411.52 57.6889C411.781 57.6889 412.693 59.0389 413.546 60.6889ZM425.046 60.7549C425.046 63.5109 424.767 63.7899 422.296 63.5049C420.136 63.2569 419.478 62.5989 419.23 60.4389C418.945 57.9679 419.224 57.6889 421.98 57.6889C424.735 57.6889 425.046 57.9999 425.046 60.7549ZM432.286 60.1649C432.874 63.2389 432.439 63.6889 428.879 63.6889C426.398 63.6889 426.046 63.3159 426.046 60.6889C426.046 58.0489 426.392 57.6889 428.929 57.6889C431.204 57.6889 431.913 58.2119 432.286 60.1649ZM441.032 58.4389C440.969 61.9389 439.601 63.6889 436.929 63.6889C434.392 63.6889 434.046 63.3289 434.046 60.6889C434.046 57.9269 434.324 57.6889 437.546 57.6889C439.471 57.6889 441.04 58.0269 441.032 58.4389ZM449.046 63.5889C444.162 64.2399 445.507 65.4179 450.796 65.1209C455.917 64.8339 456.201 64.7479 455.546 63.6889C455.206 63.1389 454.617 62.7569 454.237 62.8389C453.857 62.9219 451.521 63.2589 449.046 63.5889ZM81.046 67.6889C81.046 70.0219 80.602 70.6889 79.046 70.6889C77.49 70.6889 77.046 70.0219 77.046 67.6889C77.046 65.3559 77.49 64.6889 79.046 64.6889C80.602 64.6889 81.046 65.3559 81.046 67.6889ZM85.046 67.6889C85.046 69.6889 84.546 70.6889 83.546 70.6889C82.032 70.6889 81.404 66.6649 82.713 65.3559C84.146 63.9219 85.046 64.8219 85.046 67.6889ZM88.046 67.6889C88.046 69.3389 87.596 70.6889 87.046 70.6889C85.934 70.6889 85.666 66.4029 86.713 65.3559C87.842 64.2259 88.046 64.5819 88.046 67.6889ZM95.497 67.9389C95.599 70.3739 95.256 70.6889 92.502 70.6889C89.603 70.6889 89.423 70.4819 89.841 67.6339C90.222 65.0389 90.672 64.6249 92.836 64.8839C94.839 65.1239 95.407 65.7759 95.497 67.9389ZM102.862 67.9389C103.147 70.4099 102.868 70.6889 100.112 70.6889C97.357 70.6889 97.046 70.3779 97.046 67.6229C97.046 64.8669 97.325 64.5879 99.796 64.8729C101.956 65.1209 102.614 65.7789 102.862 67.9389ZM110.046 67.6889C110.046 70.3559 109.713 70.6889 107.046 70.6889C104.379 70.6889 104.046 70.3559 104.046 67.6889C104.046 65.0219 104.379 64.6889 107.046 64.6889C109.713 64.6889 110.046 65.0219 110.046 67.6889ZM115.046 65.7549C115.046 67.3299 113.098 70.6889 112.184 70.6889C111.749 70.6889 111.591 69.3389 111.833 67.6889C112.236 64.9429 115.046 63.2509 115.046 65.7549ZM126.046 67.6889C126.046 70.4509 125.768 70.6889 122.546 70.6889C120.621 70.6889 119.046 70.2089 119.046 69.6229C119.046 67.1099 121.271 64.6889 123.581 64.6889C125.653 64.6889 126.046 65.1669 126.046 67.6889ZM133.497 67.9389C133.6 70.4039 133.272 70.6889 130.329 70.6889C127.556 70.6889 127.046 70.3259 127.046 68.3559C127.046 65.3169 127.926 64.5319 130.927 64.8929C132.833 65.1229 133.408 65.8049 133.497 67.9389ZM141.046 67.6889C141.046 70.3559 140.713 70.6889 138.046 70.6889C135.379 70.6889 135.046 70.3559 135.046 67.6889C135.046 65.0219 135.379 64.6889 138.046 64.6889C140.713 64.6889 141.046 65.0219 141.046 67.6889ZM148.046 67.6889C148.046 70.3559 147.713 70.6889 145.046 70.6889C142.379 70.6889 142.046 70.3559 142.046 67.6889C142.046 65.0219 142.379 64.6889 145.046 64.6889C147.713 64.6889 148.046 65.0219 148.046 67.6889ZM155.267 66.4389C155.997 69.2549 155.051 70.6889 152.463 70.6889C150.444 70.6889 150.046 70.1949 150.046 67.6889C150.046 65.1949 150.448 64.6889 152.429 64.6889C153.86 64.6889 154.994 65.3889 155.267 66.4389ZM162.647 67.9389C162.734 70.3199 162.365 70.6889 159.897 70.6889C157.382 70.6889 157.046 70.3269 157.046 67.6229C157.046 64.8669 157.325 64.5879 159.796 64.8729C162.022 65.1289 162.565 65.7129 162.647 67.9389ZM170.046 67.6889C170.046 70.3559 169.713 70.6889 167.046 70.6889C164.57 70.6889 164.046 70.2819 164.046 68.3559C164.046 65.4219 164.779 64.6889 167.713 64.6889C169.639 64.6889 170.046 65.2129 170.046 67.6889ZM177.046 67.6889C177.046 70.3559 176.713 70.6889 174.046 70.6889C171.57 70.6889 171.046 70.2819 171.046 68.3559C171.046 65.4219 171.779 64.6889 174.713 64.6889C176.639 64.6889 177.046 65.2129 177.046 67.6889ZM185.862 67.9389C186.155 70.4839 185.913 70.6889 182.612 70.6889C179.3 70.6889 179.046 70.4709 179.046 67.6259C179.046 64.7719 179.268 64.5839 182.296 64.8759C185.004 65.1369 185.599 65.6479 185.862 67.9389ZM193.046 67.6889C193.046 70.3559 192.713 70.6889 190.046 70.6889C187.379 70.6889 187.046 70.3559 187.046 67.6889C187.046 65.0219 187.379 64.6889 190.046 64.6889C192.713 64.6889 193.046 65.0219 193.046 67.6889ZM200.497 67.9389C200.6 70.3929 200.265 70.6889 197.397 70.6889C194.21 70.6889 193.882 69.9009 194.977 64.8729C195.015 64.6989 196.247 64.6989 197.714 64.8729C199.847 65.1249 200.406 65.7409 200.497 67.9389ZM208.046 67.6889C208.046 70.3559 207.713 70.6889 205.046 70.6889C202.379 70.6889 202.046 70.3559 202.046 67.6889C202.046 65.0219 202.379 64.6889 205.046 64.6889C207.713 64.6889 208.046 65.0219 208.046 67.6889ZM215.046 67.6889C215.046 70.3559 214.713 70.6889 212.046 70.6889C209.57 70.6889 209.046 70.2819 209.046 68.3559C209.046 65.4219 209.779 64.6889 212.713 64.6889C214.639 64.6889 215.046 65.2129 215.046 67.6889ZM222.862 67.9389C223.147 70.4099 222.868 70.6889 220.112 70.6889C217.357 70.6889 217.046 70.3779 217.046 67.6229C217.046 64.8669 217.325 64.5879 219.796 64.8729C221.956 65.1209 222.614 65.7789 222.862 67.9389ZM230.046 67.6889C230.046 70.3559 229.713 70.6889 227.046 70.6889C224.379 70.6889 224.046 70.3559 224.046 67.6889C224.046 65.0219 224.379 64.6889 227.046 64.6889C229.713 64.6889 230.046 65.0219 230.046 67.6889ZM237.046 67.6889C237.046 70.3559 236.713 70.6889 234.046 70.6889C231.57 70.6889 231.046 70.2819 231.046 68.3559C231.046 65.4219 231.779 64.6889 234.713 64.6889C236.639 64.6889 237.046 65.2129 237.046 67.6889ZM245.259 67.6889C245.68 70.5559 245.537 70.6889 242.039 70.6889C239.252 70.6889 238.36 70.2719 238.297 68.9389C238.142 65.6729 238.977 64.6889 241.901 64.6889C244.379 64.6889 244.885 65.1419 245.259 67.6889ZM253.046 67.6889C253.046 70.3559 252.713 70.6889 250.046 70.6889C247.379 70.6889 247.046 70.3559 247.046 67.6889C247.046 65.0219 247.379 64.6889 250.046 64.6889C252.713 64.6889 253.046 65.0219 253.046 67.6889ZM260.046 67.6889C260.046 70.3559 259.713 70.6889 257.046 70.6889C254.57 70.6889 254.046 70.2819 254.046 68.3559C254.046 65.4219 254.779 64.6889 257.713 64.6889C259.639 64.6889 260.046 65.2129 260.046 67.6889ZM267.862 67.9389C268.153 70.4609 267.897 70.6889 264.786 70.6889C261.571 70.6889 261.416 70.5279 261.841 67.6339C262.225 65.0149 262.663 64.6229 264.918 64.8839C266.948 65.1199 267.618 65.8149 267.862 67.9389ZM275.046 67.6889C275.046 70.3559 274.713 70.6889 272.046 70.6889C269.379 70.6889 269.046 70.3559 269.046 67.6889C269.046 65.0219 269.379 64.6889 272.046 64.6889C274.713 64.6889 275.046 65.0219 275.046 67.6889ZM282.046 67.6889C282.046 70.3559 281.713 70.6889 279.046 70.6889C276.57 70.6889 276.046 70.2819 276.046 68.3559C276.046 65.4219 276.779 64.6889 279.713 64.6889C281.639 64.6889 282.046 65.2129 282.046 67.6889ZM289.862 67.9389C290.147 70.4099 289.868 70.6889 287.112 70.6889C284.357 70.6889 284.046 70.3779 284.046 67.6229C284.046 64.8669 284.325 64.5879 286.796 64.8729C288.956 65.1209 289.614 65.7789 289.862 67.9389ZM296.862 67.9389C297.147 70.4099 296.868 70.6889 294.112 70.6889C291.357 70.6889 291.046 70.3779 291.046 67.6229C291.046 64.8669 291.325 64.5879 293.796 64.8729C295.956 65.1209 296.614 65.7789 296.862 67.9389ZM305.046 67.6889C305.046 70.4509 304.768 70.6889 301.546 70.6889C298.546 70.6889 298.046 70.3559 298.046 68.3559C298.046 65.3269 298.771 64.6889 302.213 64.6889C304.694 64.6889 305.046 65.0619 305.046 67.6889ZM312.647 67.9389C312.734 70.3199 312.365 70.6889 309.897 70.6889C307.382 70.6889 307.046 70.3269 307.046 67.6229C307.046 64.8669 307.325 64.5879 309.796 64.8729C312.022 65.1289 312.565 65.7129 312.647 67.9389ZM320.046 67.6889C320.046 70.3559 319.713 70.6889 317.046 70.6889C314.379 70.6889 314.046 70.3559 314.046 67.6889C314.046 65.0219 314.379 64.6889 317.046 64.6889C319.713 64.6889 320.046 65.0219 320.046 67.6889ZM327.259 67.6889C327.673 70.5089 327.5 70.6889 324.373 70.6889C321.554 70.6889 321.046 70.3329 321.046 68.3559C321.046 65.4469 321.78 64.6889 324.599 64.6889C326.301 64.6889 326.922 65.3889 327.259 67.6889ZM335.046 67.6889C335.046 70.3559 334.713 70.6889 332.046 70.6889C329.379 70.6889 329.046 70.3559 329.046 67.6889C329.046 65.0219 329.379 64.6889 332.046 64.6889C334.713 64.6889 335.046 65.0219 335.046 67.6889ZM342.046 67.6889C342.046 70.3559 341.713 70.6889 339.046 70.6889C336.379 70.6889 336.046 70.3559 336.046 67.6889C336.046 65.0219 336.379 64.6889 339.046 64.6889C341.713 64.6889 342.046 65.0219 342.046 67.6889ZM349.647 67.9389C349.737 70.3869 349.396 70.6889 346.551 70.6889C343.671 70.6889 343.379 70.4169 343.601 67.9389C343.737 66.4269 343.892 65.0469 343.947 64.8729C344.001 64.6989 345.284 64.6989 346.796 64.8729C349.022 65.1289 349.565 65.7129 349.647 67.9389ZM357.046 67.6889C357.046 70.3559 356.713 70.6889 354.046 70.6889C351.379 70.6889 351.046 70.3559 351.046 67.6889C351.046 65.0219 351.379 64.6889 354.046 64.6889C356.713 64.6889 357.046 65.0219 357.046 67.6889ZM365.046 67.6889C365.046 70.4509 364.768 70.6889 361.546 70.6889C358.546 70.6889 358.046 70.3559 358.046 68.3559C358.046 65.3269 358.771 64.6889 362.213 64.6889C364.694 64.6889 365.046 65.0619 365.046 67.6889ZM372.259 67.6889C372.66 70.4189 372.445 70.6889 369.873 70.6889C367.399 70.6889 367.046 70.3149 367.046 67.6889C367.046 65.1939 367.447 64.6889 369.433 64.6889C371.32 64.6889 371.911 65.3169 372.259 67.6889ZM379.862 67.9389C380.147 70.4099 379.868 70.6889 377.112 70.6889C374.357 70.6889 374.046 70.3779 374.046 67.6229C374.046 64.8669 374.325 64.5879 376.796 64.8729C378.956 65.1209 379.614 65.7789 379.862 67.9389ZM387.046 67.6889C387.046 70.3559 386.713 70.6889 384.046 70.6889C381.379 70.6889 381.046 70.3559 381.046 67.6889C381.046 65.0219 381.379 64.6889 384.046 64.6889C386.713 64.6889 387.046 65.0219 387.046 67.6889ZM394.497 67.9389C394.599 70.3659 394.252 70.6889 391.546 70.6889C388.819 70.6889 388.502 70.3849 388.682 67.9389C388.793 66.4269 388.92 65.0469 388.965 64.8729C389.009 64.6989 390.247 64.6989 391.714 64.8729C393.847 65.1249 394.406 65.7409 394.497 67.9389ZM402.046 67.6889C402.046 70.3559 401.713 70.6889 399.046 70.6889C396.379 70.6889 396.046 70.3559 396.046 67.6889C396.046 65.0219 396.379 64.6889 399.046 64.6889C401.713 64.6889 402.046 65.0219 402.046 67.6889ZM409.046 67.6889C409.046 70.3559 408.713 70.6889 406.046 70.6889C403.379 70.6889 403.046 70.3559 403.046 67.6889C403.046 65.0219 403.379 64.6889 406.046 64.6889C408.713 64.6889 409.046 65.0219 409.046 67.6889ZM416.885 67.2359C418.472 70.7179 418.492 70.6889 414.546 70.6889C411.324 70.6889 411.046 70.4509 411.046 67.6889C411.046 65.2109 411.453 64.6889 413.385 64.6889C414.922 64.6889 416.123 65.5629 416.885 67.2359ZM425.046 68.1889C425.046 72.4589 424.552 72.5689 422.572 68.7389C420.614 64.9529 420.645 64.6889 423.046 64.6889C424.665 64.6889 425.046 65.3559 425.046 68.1889ZM432.046 67.6889C432.046 70.3559 431.713 70.6889 429.046 70.6889C426.57 70.6889 426.046 70.2819 426.046 68.3559C426.046 65.4219 426.779 64.6889 429.713 64.6889C431.639 64.6889 432.046 65.2129 432.046 67.6889ZM440.046 67.6889C440.046 70.3559 439.713 70.6889 437.046 70.6889C434.379 70.6889 434.046 70.3559 434.046 67.6889C434.046 65.0219 434.379 64.6889 437.046 64.6889C439.713 64.6889 440.046 65.0219 440.046 67.6889ZM81.046 75.7619C81.046 78.1489 80.655 78.7619 79.296 78.5039C78.241 78.3039 77.42 77.0839 77.23 75.4299C76.975 73.2239 77.317 72.6889 78.98 72.6889C80.62 72.6889 81.046 73.3229 81.046 75.7619ZM85.046 75.7719C85.046 79.5979 82.69 79.2549 82.23 75.3619C82.005 73.4679 82.369 72.6889 83.48 72.6889C84.563 72.6889 85.046 73.6399 85.046 75.7719ZM88.046 75.7479C88.046 77.5329 87.629 78.5499 87.046 78.1889C86.496 77.8489 86.046 76.4729 86.046 75.1299C86.046 73.7869 86.496 72.6889 87.046 72.6889C87.596 72.6889 88.046 74.0659 88.046 75.7479ZM95.259 75.6889C94.911 78.0609 94.32 78.6889 92.433 78.6889C90.447 78.6889 90.046 78.1839 90.046 75.6889C90.046 73.0629 90.399 72.6889 92.873 72.6889C95.445 72.6889 95.66 72.9589 95.259 75.6889ZM102.862 75.4389C102.611 77.6209 102.03 78.1889 100.046 78.1889C98.062 78.1889 97.481 77.6209 97.23 75.4389C96.944 72.9569 97.218 72.6889 100.046 72.6889C102.874 72.6889 103.148 72.9569 102.862 75.4389ZM110.031 74.4389C109.987 79.3779 104.788 80.2669 104.23 75.4299C103.945 72.9689 104.226 72.6889 106.98 72.6889C109.239 72.6889 110.042 73.1489 110.031 74.4389ZM118.046 75.1299C118.046 77.7029 116.662 79.1879 115.14 78.2469C114.148 77.6339 116.061 72.7099 117.296 72.6969C117.708 72.6929 118.046 73.7869 118.046 75.1299ZM126.046 75.6889C126.046 78.4509 125.768 78.6889 122.546 78.6889C119.324 78.6889 119.046 78.4509 119.046 75.6889C119.046 72.9269 119.324 72.6889 122.546 72.6889C125.768 72.6889 126.046 72.9269 126.046 75.6889ZM133.251 75.7439C132.867 78.3629 132.429 78.7549 130.174 78.4939C128.144 78.2579 127.474 77.5629 127.23 75.4389C126.939 72.9169 127.195 72.6889 130.306 72.6889C133.521 72.6889 133.676 72.8499 133.251 75.7439ZM140.862 75.4389C140.614 77.5989 139.956 78.2569 137.796 78.5049C135.325 78.7899 135.046 78.5109 135.046 75.7549C135.046 72.9999 135.357 72.6889 138.112 72.6889C140.868 72.6889 141.147 72.9679 140.862 75.4389ZM147.862 75.4389C147.614 77.5989 146.956 78.2569 144.796 78.5049C142.325 78.7899 142.046 78.5109 142.046 75.7549C142.046 72.9999 142.357 72.6889 145.112 72.6889C147.868 72.6889 148.147 72.9679 147.862 75.4389ZM155.497 75.4389C155.407 77.5999 154.838 78.2539 152.842 78.4929C151.254 78.6829 150.078 78.2149 149.705 77.2429C148.712 74.6549 150.107 72.6889 152.936 72.6889C155.216 72.6889 155.595 73.0959 155.497 75.4389ZM162.592 75.4389C162.554 77.6929 162.095 78.1889 160.046 78.1889C158.062 78.1889 157.481 77.6209 157.23 75.4389C156.95 73.0059 157.243 72.6889 159.776 72.6889C162.244 72.6889 162.633 73.0689 162.592 75.4389ZM169.862 75.4389C169.611 77.6209 169.03 78.1889 167.046 78.1889C165.062 78.1889 164.481 77.6209 164.23 75.4389C163.944 72.9569 164.218 72.6889 167.046 72.6889C169.874 72.6889 170.148 72.9569 169.862 75.4389ZM177.046 75.7549C177.046 78.5109 176.767 78.7899 174.296 78.5049C172.136 78.2569 171.478 77.5989 171.23 75.4389C170.945 72.9679 171.224 72.6889 173.98 72.6889C176.735 72.6889 177.046 72.9999 177.046 75.7549ZM185.862 75.4389C185.599 77.7299 185.004 78.2409 182.296 78.5019C179.268 78.7939 179.046 78.6059 179.046 75.7519C179.046 72.9069 179.3 72.6889 182.612 72.6889C185.913 72.6889 186.155 72.8939 185.862 75.4389ZM193.046 75.7549C193.046 78.5109 192.767 78.7899 190.296 78.5049C188.136 78.2569 187.478 77.5989 187.23 75.4389C186.945 72.9679 187.224 72.6889 189.98 72.6889C192.735 72.6889 193.046 72.9999 193.046 75.7549ZM200.592 75.4389C200.552 77.8129 200.139 78.1889 197.567 78.1889C195.036 78.1889 194.557 77.7759 194.377 75.4389C194.187 72.9619 194.487 72.6889 197.402 72.6889C200.278 72.6889 200.634 72.9959 200.592 75.4389ZM208.046 75.6889C208.046 78.3559 207.713 78.6889 205.046 78.6889C202.379 78.6889 202.046 78.3559 202.046 75.6889C202.046 73.0219 202.379 72.6889 205.046 72.6889C207.713 72.6889 208.046 73.0219 208.046 75.6889ZM215.046 75.7549C215.046 78.5109 214.767 78.7899 212.296 78.5049C210.136 78.2569 209.478 77.5989 209.23 75.4389C208.945 72.9679 209.224 72.6889 211.98 72.6889C214.735 72.6889 215.046 72.9999 215.046 75.7549ZM222.72 75.4389C222.556 77.6279 221.956 78.2539 219.78 78.5049C217.327 78.7889 217.046 78.5069 217.046 75.7549C217.046 73.0289 217.372 72.6889 219.986 72.6889C222.577 72.6889 222.902 73.0159 222.72 75.4389ZM229.862 75.4389C229.611 77.6209 229.03 78.1889 227.046 78.1889C225.062 78.1889 224.481 77.6209 224.23 75.4389C223.944 72.9569 224.218 72.6889 227.046 72.6889C229.874 72.6889 230.148 72.9569 229.862 75.4389ZM237.046 75.7549C237.046 78.5109 236.767 78.7899 234.296 78.5049C232.136 78.2569 231.478 77.5989 231.23 75.4389C230.945 72.9679 231.224 72.6889 233.98 72.6889C236.735 72.6889 237.046 72.9999 237.046 75.7549ZM245.262 75.6679C244.874 78.3129 244.476 78.6179 241.705 78.3939C239.097 78.1819 238.55 77.6929 238.375 75.4149C238.181 72.8919 238.447 72.6889 241.933 72.6889C245.543 72.6889 245.681 72.8129 245.262 75.6679ZM252.862 75.4389C252.614 77.5989 251.956 78.2569 249.796 78.5049C247.325 78.7899 247.046 78.5109 247.046 75.7549C247.046 72.9999 247.357 72.6889 250.112 72.6889C252.868 72.6889 253.147 72.9679 252.862 75.4389ZM260.046 75.7549C260.046 78.5109 259.767 78.7899 257.296 78.5049C255.136 78.2569 254.478 77.5989 254.23 75.4389C253.945 72.9679 254.224 72.6889 256.98 72.6889C259.735 72.6889 260.046 72.9999 260.046 75.7549ZM267.862 75.3609C267.622 77.3879 266.911 78.1159 264.912 78.3789C262.646 78.6779 262.217 78.3049 261.835 75.7079C261.417 72.8549 261.58 72.6889 264.786 72.6889C267.875 72.6889 268.151 72.9279 267.862 75.3609ZM275.046 75.6889C275.046 78.3559 274.713 78.6889 272.046 78.6889C269.379 78.6889 269.046 78.3559 269.046 75.6889C269.046 73.0219 269.379 72.6889 272.046 72.6889C274.713 72.6889 275.046 73.0219 275.046 75.6889ZM282.046 75.7549C282.046 78.5109 281.767 78.7899 279.296 78.5049C277.136 78.2569 276.478 77.5989 276.23 75.4389C275.945 72.9679 276.224 72.6889 278.98 72.6889C281.735 72.6889 282.046 72.9999 282.046 75.7549ZM289.862 75.4389C289.614 77.5989 288.956 78.2569 286.796 78.5049C284.325 78.7899 284.046 78.5109 284.046 75.7549C284.046 72.9999 284.357 72.6889 287.112 72.6889C289.868 72.6889 290.147 72.9679 289.862 75.4389ZM296.862 75.4389C296.611 77.6209 296.03 78.1889 294.046 78.1889C292.062 78.1889 291.481 77.6209 291.23 75.4389C290.944 72.9569 291.218 72.6889 294.046 72.6889C296.874 72.6889 297.148 72.9569 296.862 75.4389ZM305.046 75.7519C305.046 78.6059 304.824 78.7939 301.796 78.5019C299.088 78.2409 298.493 77.7299 298.23 75.4389C297.937 72.8939 298.179 72.6889 301.48 72.6889C304.792 72.6889 305.046 72.9069 305.046 75.7519ZM312.862 75.4389C312.614 77.5989 311.956 78.2569 309.796 78.5049C307.325 78.7899 307.046 78.5109 307.046 75.7549C307.046 72.9999 307.357 72.6889 310.112 72.6889C312.868 72.6889 313.147 72.9679 312.862 75.4389ZM320.046 75.7549C320.046 78.5109 319.767 78.7899 317.296 78.5049C315.136 78.2569 314.478 77.5989 314.23 75.4389C313.945 72.9679 314.224 72.6889 316.98 72.6889C319.735 72.6889 320.046 72.9999 320.046 75.7549ZM327.251 75.7439C326.867 78.3629 326.429 78.7549 324.174 78.4939C322.144 78.2579 321.474 77.5629 321.23 75.4389C320.939 72.9169 321.195 72.6889 324.306 72.6889C327.521 72.6889 327.676 72.8499 327.251 75.7439ZM334.862 75.4389C334.614 77.5989 333.956 78.2569 331.796 78.5049C329.325 78.7899 329.046 78.5109 329.046 75.7549C329.046 72.9999 329.357 72.6889 332.112 72.6889C334.868 72.6889 335.147 72.9679 334.862 75.4389ZM349.715 75.4389C349.535 77.7759 349.056 78.1889 346.525 78.1889C344.01 78.1889 343.595 77.8389 343.859 75.9389C344.031 74.7009 343.693 73.6889 343.109 73.6889C342.524 73.6889 342.046 74.8139 342.046 76.1889C342.046 78.2999 341.579 78.6889 339.046 78.6889C336.379 78.6889 336.046 78.3559 336.046 75.6889V72.6889H342.986H349.926L349.715 75.4389ZM356.862 75.4389C356.614 77.5989 355.956 78.2569 353.796 78.5049C351.325 78.7899 351.046 78.5109 351.046 75.7549C351.046 72.9999 351.357 72.6889 354.112 72.6889C356.868 72.6889 357.147 72.9679 356.862 75.4389ZM365.046 75.7519C365.046 78.6059 364.824 78.7939 361.796 78.5019C359.088 78.2409 358.493 77.7299 358.23 75.4389C357.937 72.8939 358.179 72.6889 361.48 72.6889C364.792 72.6889 365.046 72.9069 365.046 75.7519ZM372.259 75.6889C371.911 78.0609 371.32 78.6889 369.433 78.6889C367.447 78.6889 367.046 78.1839 367.046 75.6889C367.046 73.0629 367.399 72.6889 369.873 72.6889C372.445 72.6889 372.66 72.9589 372.259 75.6889ZM379.862 75.4389C379.614 77.5989 378.956 78.2569 376.796 78.5049C374.325 78.7899 374.046 78.5109 374.046 75.7549C374.046 72.9999 374.357 72.6889 377.112 72.6889C379.868 72.6889 380.147 72.9679 379.862 75.4389ZM387.046 75.7549C387.046 78.5109 386.767 78.7899 384.296 78.5049C382.136 78.2569 381.478 77.5989 381.23 75.4389C380.945 72.9679 381.224 72.6889 383.98 72.6889C386.735 72.6889 387.046 72.9999 387.046 75.7549ZM394.492 75.4389C394.389 77.7769 393.938 78.1889 391.48 78.1889C389.044 78.1889 388.555 77.7559 388.377 75.4389C388.187 72.9639 388.488 72.6889 391.389 72.6889C394.268 72.6889 394.599 72.9829 394.492 75.4389ZM401.862 75.4389C401.614 77.5989 400.956 78.2569 398.796 78.5049C396.325 78.7899 396.046 78.5109 396.046 75.7549C396.046 72.9999 396.357 72.6889 399.112 72.6889C401.868 72.6889 402.147 72.9679 401.862 75.4389ZM409.046 75.7549C409.046 78.5109 408.767 78.7899 406.296 78.5049C404.136 78.2569 403.478 77.5989 403.23 75.4389C402.945 72.9679 403.224 72.6889 405.98 72.6889C408.735 72.6889 409.046 72.9999 409.046 75.7549ZM417.862 75.4389C417.599 77.7299 417.004 78.2409 414.296 78.5019C411.268 78.7939 411.046 78.6059 411.046 75.7519C411.046 72.9069 411.3 72.6889 414.612 72.6889C417.913 72.6889 418.155 72.8939 417.862 75.4389ZM422.046 77.4629C422.046 80.1339 419.544 78.0119 419.273 75.1119C419.013 72.3239 419.071 72.2779 420.523 74.1299C421.361 75.1979 422.046 76.6979 422.046 77.4629ZM432.259 75.6889C431.743 79.2039 428.724 79.8249 427.081 76.7549C425.377 73.5699 425.873 72.6889 429.373 72.6889C432.5 72.6889 432.673 72.8689 432.259 75.6889ZM440.046 75.6889C440.046 78.3559 439.713 78.6889 437.046 78.6889C434.379 78.6889 434.046 78.3559 434.046 75.6889C434.046 73.0219 434.379 72.6889 437.046 72.6889C439.713 72.6889 440.046 73.0219 440.046 75.6889ZM447.862 75.4389C447.614 77.5989 446.956 78.2569 444.796 78.5049C442.325 78.7899 442.046 78.5109 442.046 75.7549C442.046 72.9999 442.357 72.6889 445.112 72.6889C447.868 72.6889 448.147 72.9679 447.862 75.4389ZM425.011 82.6229C425.58 83.6869 426.046 84.8119 426.046 85.1229C426.046 85.4339 354.956 85.6889 268.067 85.6889H110.089L111.228 83.1889L112.367 80.6889H268.171C421.187 80.6889 423.994 80.7239 425.011 82.6229ZM432.142 95.9389C433.86 99.3769 436.281 103.541 437.52 105.194C439.277 107.537 445.69 119.15 447.871 123.939C448.059 124.351 367.595 124.689 269.062 124.689C98.057 124.689 89.937 124.608 90.474 122.917C90.957 121.393 105.196 94.4739 107.389 90.9389C108.004 89.9469 141.329 89.6889 268.591 89.6889H429.017L432.142 95.9389ZM451.952 131.439C452.626 132.951 456.246 139.814 459.995 146.689C463.744 153.564 468.417 162.227 470.379 165.939L473.947 172.689H268.996C156.274 172.689 64.046 172.521 64.046 172.316C64.046 171.805 74.841 151.128 77.686 146.189C78.953 143.989 81.42 139.151 83.166 135.439L86.342 128.689H268.534H450.725L451.952 131.439ZM499.679 221.189C512.515 245.389 524.261 267.434 525.782 270.179C527.302 272.923 528.696 275.511 528.879 275.929C529.063 276.347 411.95 276.689 268.629 276.689C125.308 276.689 8.046 276.469 8.046 276.201C8.046 275.613 17.509 257.493 23.98 245.689C26.543 241.014 30.147 234.264 31.989 230.689C33.831 227.114 35.679 223.739 36.097 223.189C36.514 222.639 40.06 215.957 43.976 208.34C52.666 191.437 56.601 184.195 59.405 179.944L61.546 176.699L268.943 176.944L476.341 177.189L499.679 221.189Z" fill="black"/>
</svg>
